<svg xmlns="http://www.w3.org/2000/svg" viewBox="0 0 1600 1000" width="1600" height="1000">
  <defs>
    <radialGradient id="bg" cx="50%" cy="50%" r="75%">
      <stop offset="0%" stop-color="#0c0e2e"></stop>
      <stop offset="60%" stop-color="#05071a"></stop>
      <stop offset="100%" stop-color="#02030d"></stop>
    </radialGradient>
    <radialGradient id="g0" cx="50%" cy="50%" r="50%">
      <stop offset="0%" stop-color="#e6c984" stop-opacity="0.47"></stop>
      <stop offset="100%" stop-color="#e6c984" stop-opacity="0"></stop>
    </radialGradient><radialGradient id="g1" cx="50%" cy="50%" r="50%">
      <stop offset="0%" stop-color="#d27aa8" stop-opacity="0.63"></stop>
      <stop offset="100%" stop-color="#d27aa8" stop-opacity="0"></stop>
    </radialGradient><radialGradient id="g2" cx="50%" cy="50%" r="50%">
      <stop offset="0%" stop-color="#d27aa8" stop-opacity="0.55"></stop>
      <stop offset="100%" stop-color="#d27aa8" stop-opacity="0"></stop>
    </radialGradient><radialGradient id="g3" cx="50%" cy="50%" r="50%">
      <stop offset="0%" stop-color="#d27aa8" stop-opacity="0.65"></stop>
      <stop offset="100%" stop-color="#d27aa8" stop-opacity="0"></stop>
    </radialGradient><radialGradient id="g4" cx="50%" cy="50%" r="50%">
      <stop offset="0%" stop-color="#3556ad" stop-opacity="0.48"></stop>
      <stop offset="100%" stop-color="#3556ad" stop-opacity="0"></stop>
    </radialGradient><radialGradient id="g5" cx="50%" cy="50%" r="50%">
      <stop offset="0%" stop-color="#d27aa8" stop-opacity="0.65"></stop>
      <stop offset="100%" stop-color="#d27aa8" stop-opacity="0"></stop>
    </radialGradient><radialGradient id="g6" cx="50%" cy="50%" r="50%">
      <stop offset="0%" stop-color="#8a5cd9" stop-opacity="0.61"></stop>
      <stop offset="100%" stop-color="#8a5cd9" stop-opacity="0"></stop>
    </radialGradient>
  </defs>
  <rect width="100%" height="100%" fill="url(#bg)"></rect>
  <ellipse cx="136" cy="997" rx="768" ry="537" fill="url(#g0)"></ellipse><ellipse cx="60" cy="241" rx="475" ry="332" fill="url(#g1)"></ellipse><ellipse cx="1005" cy="399" rx="600" ry="420" fill="url(#g2)"></ellipse><ellipse cx="666" cy="398" rx="502" ry="351" fill="url(#g3)"></ellipse><ellipse cx="944" cy="355" rx="768" ry="538" fill="url(#g4)"></ellipse><ellipse cx="658" cy="345" rx="718" ry="502" fill="url(#g5)"></ellipse><ellipse cx="525" cy="853" rx="334" ry="234" fill="url(#g6)"></ellipse>
  <circle cx="1202" cy="883" r="0.82" fill="#fff" opacity="0.50"></circle><circle cx="1250" cy="498" r="1.25" fill="#fff" opacity="0.59"></circle><circle cx="600" cy="887" r="1.48" fill="#fff" opacity="0.67"></circle><circle cx="62" cy="963" r="0.46" fill="#fff" opacity="0.76"></circle><circle cx="1453" cy="825" r="0.30" fill="#fff" opacity="0.49"></circle><circle cx="1554" cy="647" r="0.46" fill="#fff" opacity="0.99"></circle><circle cx="1529" cy="229" r="0.63" fill="#fff" opacity="0.61"></circle><circle cx="1419" cy="227" r="0.60" fill="#fff" opacity="0.71"></circle><circle cx="492" cy="36" r="0.99" fill="#fff" opacity="0.95"></circle><circle cx="270" cy="347" r="0.90" fill="#fff" opacity="0.43"></circle><circle cx="615" cy="369" r="0.42" fill="#fff" opacity="0.43"></circle><circle cx="83" cy="721" r="1.32" fill="#fff" opacity="0.96"></circle><circle cx="553" cy="983" r="0.83" fill="#fff" opacity="0.63"></circle><circle cx="107" cy="919" r="0.63" fill="#fff" opacity="0.67"></circle><circle cx="1392" cy="370" r="1.03" fill="#fff" opacity="0.81"></circle><circle cx="242" cy="804" r="1.30" fill="#fff" opacity="0.41"></circle><circle cx="962" cy="543" r="0.79" fill="#fff" opacity="0.62"></circle><circle cx="687" cy="648" r="0.98" fill="#fff" opacity="0.90"></circle><circle cx="406" cy="477" r="0.55" fill="#fff" opacity="0.76"></circle><circle cx="1046" cy="908" r="0.46" fill="#fff" opacity="0.68"></circle><circle cx="633" cy="222" r="0.73" fill="#fff" opacity="0.45"></circle><circle cx="510" cy="669" r="0.77" fill="#fff" opacity="0.90"></circle><circle cx="1427" cy="679" r="0.52" fill="#fff" opacity="0.65"></circle><circle cx="698" cy="760" r="1.16" fill="#fff" opacity="0.43"></circle><circle cx="21" cy="46" r="1.53" fill="#fff" opacity="0.61"></circle><circle cx="1571" cy="526" r="0.53" fill="#fff" opacity="0.93"></circle><circle cx="348" cy="927" r="0.53" fill="#fff" opacity="0.66"></circle><circle cx="7" cy="275" r="1.07" fill="#fff" opacity="0.90"></circle><circle cx="944" cy="112" r="1.37" fill="#fff" opacity="0.73"></circle><circle cx="650" cy="390" r="1.01" fill="#fff" opacity="0.94"></circle><circle cx="1534" cy="22" r="1.58" fill="#fff" opacity="0.96"></circle><circle cx="614" cy="106" r="1.28" fill="#fff" opacity="0.43"></circle><circle cx="1070" cy="816" r="0.86" fill="#fff" opacity="0.45"></circle><circle cx="868" cy="954" r="1.32" fill="#fff" opacity="0.61"></circle><circle cx="46" cy="175" r="1.15" fill="#fff" opacity="0.44"></circle><circle cx="1075" cy="872" r="0.96" fill="#fff" opacity="0.82"></circle><circle cx="676" cy="739" r="1.16" fill="#fff" opacity="0.83"></circle><circle cx="309" cy="984" r="0.54" fill="#fff" opacity="0.57"></circle><circle cx="133" cy="225" r="0.86" fill="#fff" opacity="0.62"></circle><circle cx="424" cy="42" r="0.66" fill="#fff" opacity="0.83"></circle><circle cx="867" cy="200" r="0.31" fill="#fff" opacity="0.61"></circle><circle cx="909" cy="540" r="1.43" fill="#fff" opacity="0.88"></circle><circle cx="1180" cy="530" r="0.69" fill="#fff" opacity="0.41"></circle><circle cx="1189" cy="491" r="1.33" fill="#fff" opacity="0.96"></circle><circle cx="1270" cy="485" r="0.95" fill="#fff" opacity="0.77"></circle><circle cx="811" cy="869" r="0.81" fill="#fff" opacity="0.57"></circle><circle cx="740" cy="522" r="0.57" fill="#fff" opacity="0.82"></circle><circle cx="683" cy="726" r="1.57" fill="#fff" opacity="0.71"></circle><circle cx="382" cy="728" r="0.60" fill="#fff" opacity="0.50"></circle><circle cx="588" cy="961" r="1.50" fill="#fff" opacity="0.59"></circle><circle cx="214" cy="930" r="1.56" fill="#fff" opacity="0.50"></circle><circle cx="960" cy="771" r="0.92" fill="#fff" opacity="0.61"></circle><circle cx="198" cy="473" r="1.08" fill="#fff" opacity="0.67"></circle><circle cx="931" cy="763" r="0.50" fill="#fff" opacity="0.53"></circle><circle cx="412" cy="667" r="1.33" fill="#fff" opacity="0.70"></circle><circle cx="638" cy="727" r="1.48" fill="#fff" opacity="0.86"></circle><circle cx="699" cy="893" r="0.55" fill="#fff" opacity="0.60"></circle><circle cx="1406" cy="81" r="1.41" fill="#fff" opacity="0.57"></circle><circle cx="1375" cy="388" r="0.96" fill="#fff" opacity="0.96"></circle><circle cx="586" cy="986" r="1.26" fill="#fff" opacity="0.52"></circle><circle cx="206" cy="680" r="0.71" fill="#fff" opacity="0.61"></circle><circle cx="274" cy="122" r="0.40" fill="#fff" opacity="0.78"></circle><circle cx="58" cy="709" r="0.92" fill="#fff" opacity="0.69"></circle><circle cx="1081" cy="131" r="1.41" fill="#fff" opacity="0.63"></circle><circle cx="3" cy="598" r="0.65" fill="#fff" opacity="0.71"></circle><circle cx="182" cy="728" r="0.39" fill="#fff" opacity="0.89"></circle><circle cx="296" cy="100" r="0.48" fill="#fff" opacity="0.43"></circle><circle cx="28" cy="481" r="1.29" fill="#fff" opacity="0.54"></circle><circle cx="425" cy="710" r="0.53" fill="#fff" opacity="0.95"></circle><circle cx="519" cy="255" r="1.38" fill="#fff" opacity="0.41"></circle><circle cx="1416" cy="438" r="0.58" fill="#fff" opacity="0.69"></circle><circle cx="253" cy="321" r="0.91" fill="#fff" opacity="0.64"></circle><circle cx="1216" cy="262" r="1.07" fill="#fff" opacity="0.97"></circle><circle cx="434" cy="136" r="0.69" fill="#fff" opacity="0.95"></circle><circle cx="732" cy="229" r="1.10" fill="#fff" opacity="0.98"></circle><circle cx="253" cy="787" r="0.42" fill="#fff" opacity="0.70"></circle><circle cx="1348" cy="242" r="1.18" fill="#fff" opacity="0.52"></circle><circle cx="1330" cy="100" r="0.67" fill="#fff" opacity="0.57"></circle><circle cx="299" cy="497" r="0.31" fill="#fff" opacity="0.61"></circle><circle cx="425" cy="421" r="0.33" fill="#fff" opacity="0.40"></circle><circle cx="1514" cy="600" r="0.47" fill="#fff" opacity="1.00"></circle><circle cx="818" cy="59" r="1.59" fill="#fff" opacity="0.50"></circle><circle cx="332" cy="341" r="1.59" fill="#fff" opacity="1.00"></circle><circle cx="749" cy="397" r="1.38" fill="#fff" opacity="0.87"></circle><circle cx="1277" cy="140" r="1.23" fill="#fff" opacity="0.77"></circle><circle cx="535" cy="669" r="0.64" fill="#fff" opacity="0.90"></circle><circle cx="103" cy="156" r="0.37" fill="#fff" opacity="0.59"></circle><circle cx="1145" cy="405" r="1.40" fill="#fff" opacity="0.61"></circle><circle cx="501" cy="70" r="0.94" fill="#fff" opacity="0.51"></circle><circle cx="641" cy="546" r="0.89" fill="#fff" opacity="0.55"></circle><circle cx="1486" cy="523" r="0.37" fill="#fff" opacity="0.44"></circle><circle cx="1297" cy="212" r="0.76" fill="#fff" opacity="0.84"></circle><circle cx="232" cy="231" r="1.23" fill="#fff" opacity="0.56"></circle><circle cx="168" cy="159" r="0.30" fill="#fff" opacity="0.64"></circle><circle cx="789" cy="762" r="0.97" fill="#fff" opacity="0.48"></circle><circle cx="1541" cy="880" r="0.93" fill="#fff" opacity="0.41"></circle><circle cx="1458" cy="981" r="0.77" fill="#fff" opacity="0.41"></circle><circle cx="44" cy="386" r="1.12" fill="#fff" opacity="0.43"></circle><circle cx="836" cy="158" r="0.88" fill="#fff" opacity="0.51"></circle><circle cx="21" cy="654" r="1.32" fill="#fff" opacity="0.77"></circle><circle cx="128" cy="751" r="0.80" fill="#fff" opacity="0.49"></circle><circle cx="782" cy="732" r="0.64" fill="#fff" opacity="0.65"></circle><circle cx="125" cy="845" r="1.55" fill="#fff" opacity="0.90"></circle><circle cx="509" cy="523" r="0.86" fill="#fff" opacity="0.46"></circle><circle cx="847" cy="270" r="1.07" fill="#fff" opacity="0.64"></circle><circle cx="1237" cy="222" r="1.00" fill="#fff" opacity="0.61"></circle><circle cx="653" cy="369" r="0.87" fill="#fff" opacity="0.74"></circle><circle cx="497" cy="437" r="0.44" fill="#fff" opacity="0.87"></circle><circle cx="1223" cy="451" r="0.54" fill="#fff" opacity="0.90"></circle><circle cx="26" cy="955" r="0.40" fill="#fff" opacity="0.53"></circle><circle cx="798" cy="900" r="0.92" fill="#fff" opacity="0.54"></circle><circle cx="1149" cy="198" r="1.05" fill="#fff" opacity="0.97"></circle><circle cx="1296" cy="950" r="0.32" fill="#fff" opacity="0.83"></circle><circle cx="1219" cy="326" r="0.77" fill="#fff" opacity="0.66"></circle><circle cx="483" cy="131" r="0.79" fill="#fff" opacity="0.62"></circle><circle cx="729" cy="18" r="1.49" fill="#fff" opacity="0.85"></circle><circle cx="1224" cy="382" r="0.86" fill="#fff" opacity="0.42"></circle><circle cx="291" cy="915" r="0.63" fill="#fff" opacity="0.84"></circle><circle cx="991" cy="827" r="0.87" fill="#fff" opacity="0.98"></circle><circle cx="282" cy="734" r="0.76" fill="#fff" opacity="0.83"></circle><circle cx="40" cy="218" r="1.43" fill="#fff" opacity="0.84"></circle><circle cx="1550" cy="43" r="0.65" fill="#fff" opacity="0.41"></circle><circle cx="1058" cy="50" r="1.33" fill="#fff" opacity="0.48"></circle><circle cx="796" cy="706" r="1.46" fill="#fff" opacity="0.42"></circle><circle cx="271" cy="334" r="0.37" fill="#fff" opacity="0.76"></circle><circle cx="1419" cy="994" r="0.85" fill="#fff" opacity="0.98"></circle><circle cx="426" cy="46" r="1.58" fill="#fff" opacity="0.57"></circle><circle cx="1422" cy="365" r="0.91" fill="#fff" opacity="0.62"></circle><circle cx="832" cy="235" r="1.47" fill="#fff" opacity="0.92"></circle><circle cx="1597" cy="904" r="1.37" fill="#fff" opacity="0.51"></circle><circle cx="1270" cy="804" r="0.54" fill="#fff" opacity="0.99"></circle><circle cx="363" cy="439" r="1.47" fill="#fff" opacity="0.71"></circle><circle cx="576" cy="948" r="0.39" fill="#fff" opacity="0.62"></circle><circle cx="880" cy="316" r="1.42" fill="#fff" opacity="0.47"></circle><circle cx="1080" cy="273" r="0.41" fill="#fff" opacity="0.74"></circle><circle cx="28" cy="843" r="0.80" fill="#fff" opacity="0.71"></circle><circle cx="1320" cy="570" r="0.52" fill="#fff" opacity="0.67"></circle><circle cx="848" cy="403" r="0.45" fill="#fff" opacity="0.81"></circle><circle cx="1021" cy="257" r="0.88" fill="#fff" opacity="0.57"></circle><circle cx="457" cy="231" r="1.30" fill="#fff" opacity="0.77"></circle><circle cx="735" cy="496" r="1.17" fill="#fff" opacity="0.73"></circle><circle cx="1422" cy="856" r="1.48" fill="#fff" opacity="0.62"></circle><circle cx="956" cy="966" r="0.73" fill="#fff" opacity="0.59"></circle><circle cx="207" cy="219" r="0.83" fill="#fff" opacity="0.89"></circle><circle cx="696" cy="307" r="0.89" fill="#fff" opacity="0.64"></circle><circle cx="685" cy="441" r="0.99" fill="#fff" opacity="0.51"></circle><circle cx="331" cy="238" r="1.60" fill="#fff" opacity="0.50"></circle><circle cx="1512" cy="277" r="1.25" fill="#fff" opacity="0.44"></circle><circle cx="710" cy="324" r="0.32" fill="#fff" opacity="0.95"></circle><circle cx="574" cy="219" r="0.44" fill="#fff" opacity="0.55"></circle><circle cx="135" cy="431" r="0.85" fill="#fff" opacity="0.42"></circle><circle cx="499" cy="281" r="0.92" fill="#fff" opacity="0.50"></circle><circle cx="402" cy="831" r="0.82" fill="#fff" opacity="0.85"></circle><circle cx="831" cy="438" r="0.54" fill="#fff" opacity="0.97"></circle><circle cx="1116" cy="979" r="1.02" fill="#fff" opacity="0.76"></circle><circle cx="881" cy="739" r="1.01" fill="#fff" opacity="0.59"></circle><circle cx="1469" cy="963" r="1.19" fill="#fff" opacity="0.71"></circle><circle cx="431" cy="85" r="1.52" fill="#fff" opacity="0.93"></circle><circle cx="1479" cy="609" r="0.57" fill="#fff" opacity="0.77"></circle><circle cx="1514" cy="673" r="1.08" fill="#fff" opacity="0.62"></circle><circle cx="1108" cy="264" r="0.66" fill="#fff" opacity="0.81"></circle><circle cx="63" cy="110" r="0.37" fill="#fff" opacity="0.60"></circle><circle cx="433" cy="235" r="1.06" fill="#fff" opacity="0.51"></circle><circle cx="1014" cy="184" r="0.63" fill="#fff" opacity="0.80"></circle><circle cx="898" cy="906" r="1.28" fill="#fff" opacity="0.48"></circle><circle cx="893" cy="316" r="0.70" fill="#fff" opacity="0.77"></circle><circle cx="1217" cy="512" r="0.98" fill="#fff" opacity="0.71"></circle><circle cx="251" cy="666" r="1.57" fill="#fff" opacity="0.80"></circle><circle cx="760" cy="582" r="0.87" fill="#fff" opacity="0.62"></circle><circle cx="1183" cy="913" r="1.28" fill="#fff" opacity="0.92"></circle><circle cx="790" cy="55" r="0.80" fill="#fff" opacity="0.76"></circle><circle cx="1102" cy="699" r="1.14" fill="#fff" opacity="0.44"></circle><circle cx="379" cy="56" r="1.10" fill="#fff" opacity="0.65"></circle><circle cx="381" cy="741" r="1.13" fill="#fff" opacity="0.77"></circle><circle cx="1384" cy="336" r="1.08" fill="#fff" opacity="0.64"></circle><circle cx="1471" cy="605" r="1.30" fill="#fff" opacity="0.88"></circle><circle cx="90" cy="389" r="0.84" fill="#fff" opacity="0.62"></circle><circle cx="1073" cy="157" r="1.54" fill="#fff" opacity="0.42"></circle><circle cx="726" cy="229" r="1.46" fill="#fff" opacity="0.83"></circle><circle cx="985" cy="667" r="0.79" fill="#fff" opacity="0.72"></circle><circle cx="1237" cy="830" r="0.80" fill="#fff" opacity="0.78"></circle><circle cx="810" cy="594" r="1.14" fill="#fff" opacity="0.89"></circle><circle cx="931" cy="242" r="0.54" fill="#fff" opacity="0.86"></circle><circle cx="1341" cy="22" r="1.02" fill="#fff" opacity="0.91"></circle><circle cx="1191" cy="366" r="1.20" fill="#fff" opacity="0.86"></circle><circle cx="996" cy="779" r="0.97" fill="#fff" opacity="0.84"></circle><circle cx="853" cy="399" r="0.47" fill="#fff" opacity="0.62"></circle><circle cx="1335" cy="212" r="1.21" fill="#fff" opacity="0.54"></circle><circle cx="646" cy="946" r="0.34" fill="#fff" opacity="0.47"></circle><circle cx="838" cy="628" r="1.31" fill="#fff" opacity="0.91"></circle><circle cx="708" cy="798" r="0.74" fill="#fff" opacity="0.94"></circle><circle cx="947" cy="410" r="0.82" fill="#fff" opacity="0.75"></circle><circle cx="765" cy="375" r="0.52" fill="#fff" opacity="0.98"></circle><circle cx="378" cy="793" r="0.66" fill="#fff" opacity="0.64"></circle><circle cx="1368" cy="836" r="0.67" fill="#fff" opacity="0.87"></circle><circle cx="99" cy="307" r="1.56" fill="#fff" opacity="0.62"></circle><circle cx="1411" cy="861" r="0.52" fill="#fff" opacity="0.66"></circle><circle cx="1373" cy="892" r="0.76" fill="#fff" opacity="0.63"></circle><circle cx="1507" cy="92" r="1.40" fill="#fff" opacity="0.84"></circle><circle cx="73" cy="670" r="1.21" fill="#fff" opacity="0.78"></circle><circle cx="431" cy="244" r="0.66" fill="#fff" opacity="0.44"></circle><circle cx="1255" cy="394" r="0.90" fill="#fff" opacity="0.84"></circle><circle cx="632" cy="886" r="0.98" fill="#fff" opacity="0.82"></circle><circle cx="1206" cy="559" r="1.24" fill="#fff" opacity="0.69"></circle><circle cx="412" cy="882" r="0.93" fill="#fff" opacity="0.42"></circle><circle cx="953" cy="177" r="0.71" fill="#fff" opacity="0.57"></circle><circle cx="1568" cy="504" r="0.75" fill="#fff" opacity="0.58"></circle><circle cx="42" cy="222" r="1.05" fill="#fff" opacity="0.58"></circle><circle cx="505" cy="208" r="1.25" fill="#fff" opacity="0.43"></circle><circle cx="980" cy="745" r="1.38" fill="#fff" opacity="0.53"></circle><circle cx="1213" cy="81" r="0.84" fill="#fff" opacity="0.51"></circle><circle cx="352" cy="647" r="0.88" fill="#fff" opacity="0.80"></circle><circle cx="512" cy="949" r="1.37" fill="#fff" opacity="0.91"></circle><circle cx="191" cy="124" r="1.16" fill="#fff" opacity="0.62"></circle><circle cx="1562" cy="159" r="0.46" fill="#fff" opacity="0.88"></circle><circle cx="1229" cy="783" r="0.31" fill="#fff" opacity="0.94"></circle><circle cx="1244" cy="20" r="1.57" fill="#fff" opacity="0.71"></circle><circle cx="403" cy="413" r="0.85" fill="#fff" opacity="0.47"></circle><circle cx="997" cy="913" r="0.35" fill="#fff" opacity="0.42"></circle><circle cx="637" cy="434" r="0.35" fill="#fff" opacity="0.58"></circle>
</svg>