<svg xmlns="http://www.w3.org/2000/svg" viewBox="0 0 1600 1000" width="1600" height="1000">
  <defs>
    <radialGradient id="bg" cx="50%" cy="50%" r="75%">
      <stop offset="0%" stop-color="#0c0e2e"></stop>
      <stop offset="60%" stop-color="#05071a"></stop>
      <stop offset="100%" stop-color="#02030d"></stop>
    </radialGradient>
    <radialGradient id="g0" cx="50%" cy="50%" r="50%">
      <stop offset="0%" stop-color="#7b4cc5" stop-opacity="0.44"></stop>
      <stop offset="100%" stop-color="#7b4cc5" stop-opacity="0"></stop>
    </radialGradient><radialGradient id="g1" cx="50%" cy="50%" r="50%">
      <stop offset="0%" stop-color="#e8c688" stop-opacity="0.49"></stop>
      <stop offset="100%" stop-color="#e8c688" stop-opacity="0"></stop>
    </radialGradient><radialGradient id="g2" cx="50%" cy="50%" r="50%">
      <stop offset="0%" stop-color="#c97bb7" stop-opacity="0.47"></stop>
      <stop offset="100%" stop-color="#c97bb7" stop-opacity="0"></stop>
    </radialGradient><radialGradient id="g3" cx="50%" cy="50%" r="50%">
      <stop offset="0%" stop-color="#3a64c7" stop-opacity="0.67"></stop>
      <stop offset="100%" stop-color="#3a64c7" stop-opacity="0"></stop>
    </radialGradient><radialGradient id="g4" cx="50%" cy="50%" r="50%">
      <stop offset="0%" stop-color="#3a64c7" stop-opacity="0.53"></stop>
      <stop offset="100%" stop-color="#3a64c7" stop-opacity="0"></stop>
    </radialGradient><radialGradient id="g5" cx="50%" cy="50%" r="50%">
      <stop offset="0%" stop-color="#2e8fb4" stop-opacity="0.50"></stop>
      <stop offset="100%" stop-color="#2e8fb4" stop-opacity="0"></stop>
    </radialGradient><radialGradient id="g6" cx="50%" cy="50%" r="50%">
      <stop offset="0%" stop-color="#c97bb7" stop-opacity="0.70"></stop>
      <stop offset="100%" stop-color="#c97bb7" stop-opacity="0"></stop>
    </radialGradient>
  </defs>
  <rect width="100%" height="100%" fill="url(#bg)"></rect>
  <ellipse cx="1040" cy="904" rx="440" ry="308" fill="url(#g0)"></ellipse><ellipse cx="1215" cy="195" rx="456" ry="319" fill="url(#g1)"></ellipse><ellipse cx="990" cy="843" rx="776" ry="543" fill="url(#g2)"></ellipse><ellipse cx="725" cy="445" rx="587" ry="411" fill="url(#g3)"></ellipse><ellipse cx="188" cy="781" rx="308" ry="216" fill="url(#g4)"></ellipse><ellipse cx="866" cy="595" rx="623" ry="436" fill="url(#g5)"></ellipse><ellipse cx="1340" cy="38" rx="320" ry="224" fill="url(#g6)"></ellipse>
  <circle cx="135" cy="781" r="1.13" fill="#fff" opacity="0.91"></circle><circle cx="598" cy="766" r="1.32" fill="#fff" opacity="0.76"></circle><circle cx="1074" cy="303" r="1.45" fill="#fff" opacity="0.86"></circle><circle cx="1306" cy="639" r="0.92" fill="#fff" opacity="0.85"></circle><circle cx="445" cy="205" r="0.95" fill="#fff" opacity="0.53"></circle><circle cx="605" cy="508" r="1.45" fill="#fff" opacity="0.65"></circle><circle cx="284" cy="683" r="1.23" fill="#fff" opacity="0.96"></circle><circle cx="56" cy="718" r="0.53" fill="#fff" opacity="0.61"></circle><circle cx="1322" cy="341" r="0.39" fill="#fff" opacity="0.68"></circle><circle cx="1337" cy="578" r="0.35" fill="#fff" opacity="0.45"></circle><circle cx="496" cy="971" r="0.93" fill="#fff" opacity="0.81"></circle><circle cx="1090" cy="471" r="0.43" fill="#fff" opacity="0.75"></circle><circle cx="730" cy="992" r="0.42" fill="#fff" opacity="0.91"></circle><circle cx="1232" cy="632" r="0.41" fill="#fff" opacity="0.91"></circle><circle cx="977" cy="564" r="1.15" fill="#fff" opacity="0.67"></circle><circle cx="1131" cy="591" r="1.03" fill="#fff" opacity="0.96"></circle><circle cx="132" cy="367" r="1.15" fill="#fff" opacity="0.73"></circle><circle cx="450" cy="287" r="0.81" fill="#fff" opacity="0.83"></circle><circle cx="405" cy="42" r="0.43" fill="#fff" opacity="0.98"></circle><circle cx="1461" cy="843" r="1.40" fill="#fff" opacity="0.65"></circle><circle cx="574" cy="306" r="1.58" fill="#fff" opacity="0.44"></circle><circle cx="1221" cy="12" r="0.80" fill="#fff" opacity="0.78"></circle><circle cx="1486" cy="726" r="0.74" fill="#fff" opacity="0.49"></circle><circle cx="816" cy="287" r="0.42" fill="#fff" opacity="0.49"></circle><circle cx="1443" cy="166" r="0.39" fill="#fff" opacity="0.76"></circle><circle cx="1274" cy="683" r="1.33" fill="#fff" opacity="0.64"></circle><circle cx="644" cy="899" r="0.80" fill="#fff" opacity="0.79"></circle><circle cx="540" cy="173" r="1.39" fill="#fff" opacity="0.71"></circle><circle cx="292" cy="381" r="1.44" fill="#fff" opacity="0.90"></circle><circle cx="1123" cy="807" r="0.99" fill="#fff" opacity="0.53"></circle><circle cx="1178" cy="698" r="0.74" fill="#fff" opacity="0.45"></circle><circle cx="1206" cy="486" r="0.63" fill="#fff" opacity="0.47"></circle><circle cx="122" cy="677" r="0.55" fill="#fff" opacity="0.71"></circle><circle cx="1223" cy="408" r="0.62" fill="#fff" opacity="0.96"></circle><circle cx="283" cy="665" r="1.08" fill="#fff" opacity="0.95"></circle><circle cx="305" cy="178" r="0.35" fill="#fff" opacity="0.54"></circle><circle cx="142" cy="970" r="0.60" fill="#fff" opacity="0.85"></circle><circle cx="190" cy="585" r="1.04" fill="#fff" opacity="0.94"></circle><circle cx="1140" cy="974" r="1.27" fill="#fff" opacity="0.42"></circle><circle cx="602" cy="51" r="1.55" fill="#fff" opacity="0.52"></circle><circle cx="393" cy="913" r="1.39" fill="#fff" opacity="0.85"></circle><circle cx="494" cy="734" r="1.55" fill="#fff" opacity="0.74"></circle><circle cx="469" cy="317" r="0.42" fill="#fff" opacity="0.96"></circle><circle cx="359" cy="315" r="0.39" fill="#fff" opacity="0.46"></circle><circle cx="1032" cy="123" r="0.78" fill="#fff" opacity="0.70"></circle><circle cx="810" cy="434" r="0.69" fill="#fff" opacity="0.78"></circle><circle cx="1155" cy="457" r="1.51" fill="#fff" opacity="0.79"></circle><circle cx="623" cy="809" r="1.11" fill="#fff" opacity="0.71"></circle><circle cx="1093" cy="70" r="0.62" fill="#fff" opacity="0.98"></circle><circle cx="647" cy="7" r="0.42" fill="#fff" opacity="0.42"></circle><circle cx="332" cy="457" r="0.82" fill="#fff" opacity="0.56"></circle><circle cx="782" cy="892" r="1.08" fill="#fff" opacity="0.76"></circle><circle cx="1502" cy="630" r="0.57" fill="#fff" opacity="0.97"></circle><circle cx="1227" cy="736" r="0.77" fill="#fff" opacity="0.66"></circle><circle cx="946" cy="565" r="0.34" fill="#fff" opacity="0.52"></circle><circle cx="1586" cy="995" r="1.55" fill="#fff" opacity="0.43"></circle><circle cx="1173" cy="310" r="0.52" fill="#fff" opacity="0.80"></circle><circle cx="1050" cy="757" r="0.56" fill="#fff" opacity="0.65"></circle><circle cx="367" cy="767" r="0.31" fill="#fff" opacity="0.40"></circle><circle cx="1238" cy="847" r="0.95" fill="#fff" opacity="0.78"></circle><circle cx="561" cy="133" r="1.31" fill="#fff" opacity="0.96"></circle><circle cx="511" cy="613" r="0.32" fill="#fff" opacity="0.68"></circle><circle cx="888" cy="14" r="0.32" fill="#fff" opacity="0.41"></circle><circle cx="547" cy="362" r="0.86" fill="#fff" opacity="0.65"></circle><circle cx="1484" cy="200" r="1.15" fill="#fff" opacity="0.48"></circle><circle cx="1190" cy="478" r="0.80" fill="#fff" opacity="0.69"></circle><circle cx="474" cy="110" r="1.37" fill="#fff" opacity="0.72"></circle><circle cx="1154" cy="194" r="1.07" fill="#fff" opacity="0.78"></circle><circle cx="10" cy="904" r="0.65" fill="#fff" opacity="0.81"></circle><circle cx="1408" cy="42" r="1.11" fill="#fff" opacity="0.96"></circle><circle cx="586" cy="262" r="0.94" fill="#fff" opacity="0.80"></circle><circle cx="15" cy="960" r="0.74" fill="#fff" opacity="0.57"></circle><circle cx="1216" cy="826" r="0.95" fill="#fff" opacity="0.58"></circle><circle cx="849" cy="71" r="0.32" fill="#fff" opacity="0.92"></circle><circle cx="673" cy="312" r="0.64" fill="#fff" opacity="0.98"></circle><circle cx="964" cy="129" r="0.45" fill="#fff" opacity="0.58"></circle><circle cx="1407" cy="288" r="1.40" fill="#fff" opacity="0.96"></circle><circle cx="1449" cy="627" r="1.22" fill="#fff" opacity="0.63"></circle><circle cx="120" cy="617" r="0.47" fill="#fff" opacity="0.76"></circle><circle cx="129" cy="578" r="1.12" fill="#fff" opacity="0.71"></circle><circle cx="210" cy="572" r="0.73" fill="#fff" opacity="0.53"></circle><circle cx="1351" cy="957" r="0.60" fill="#fff" opacity="0.92"></circle><circle cx="1280" cy="609" r="0.36" fill="#fff" opacity="0.57"></circle><circle cx="1223" cy="813" r="1.36" fill="#fff" opacity="0.47"></circle><circle cx="922" cy="815" r="0.39" fill="#fff" opacity="0.85"></circle><circle cx="1128" cy="48" r="1.29" fill="#fff" opacity="0.94"></circle><circle cx="754" cy="17" r="1.35" fill="#fff" opacity="0.85"></circle><circle cx="1500" cy="859" r="0.70" fill="#fff" opacity="0.96"></circle><circle cx="738" cy="561" r="0.87" fill="#fff" opacity="0.42"></circle><circle cx="1471" cy="851" r="1.59" fill="#fff" opacity="0.88"></circle><circle cx="952" cy="754" r="1.12" fill="#fff" opacity="0.45"></circle><circle cx="1178" cy="814" r="1.27" fill="#fff" opacity="0.61"></circle><circle cx="1239" cy="981" r="0.33" fill="#fff" opacity="0.96"></circle><circle cx="346" cy="168" r="1.19" fill="#fff" opacity="0.92"></circle><circle cx="315" cy="475" r="0.75" fill="#fff" opacity="0.72"></circle><circle cx="1126" cy="74" r="1.05" fill="#fff" opacity="0.87"></circle><circle cx="746" cy="767" r="0.50" fill="#fff" opacity="0.96"></circle><circle cx="814" cy="210" r="1.48" fill="#fff" opacity="0.53"></circle><circle cx="598" cy="796" r="0.71" fill="#fff" opacity="0.44"></circle><circle cx="21" cy="218" r="1.20" fill="#fff" opacity="0.99"></circle><circle cx="543" cy="686" r="0.44" fill="#fff" opacity="0.46"></circle><circle cx="722" cy="815" r="1.48" fill="#fff" opacity="0.65"></circle><circle cx="836" cy="188" r="1.57" fill="#fff" opacity="0.79"></circle><circle cx="568" cy="569" r="1.08" fill="#fff" opacity="0.90"></circle><circle cx="965" cy="797" r="0.32" fill="#fff" opacity="0.70"></circle><circle cx="1059" cy="343" r="1.16" fill="#fff" opacity="0.76"></circle><circle cx="356" cy="526" r="0.37" fill="#fff" opacity="0.44"></circle><circle cx="793" cy="409" r="0.70" fill="#fff" opacity="0.99"></circle><circle cx="156" cy="349" r="0.86" fill="#fff" opacity="0.72"></circle><circle cx="974" cy="224" r="0.48" fill="#fff" opacity="0.70"></circle><circle cx="1272" cy="316" r="0.89" fill="#fff" opacity="0.74"></circle><circle cx="793" cy="874" r="1.51" fill="#fff" opacity="0.45"></circle><circle cx="288" cy="329" r="0.97" fill="#fff" opacity="0.87"></circle><circle cx="270" cy="187" r="0.45" fill="#fff" opacity="0.92"></circle><circle cx="839" cy="584" r="1.39" fill="#fff" opacity="0.97"></circle><circle cx="965" cy="508" r="1.41" fill="#fff" opacity="0.76"></circle><circle cx="454" cy="688" r="1.56" fill="#fff" opacity="0.75"></circle><circle cx="1358" cy="147" r="1.38" fill="#fff" opacity="0.85"></circle><circle cx="872" cy="429" r="1.38" fill="#fff" opacity="0.75"></circle><circle cx="1289" cy="484" r="1.17" fill="#fff" opacity="0.62"></circle><circle cx="217" cy="227" r="1.02" fill="#fff" opacity="0.52"></circle><circle cx="1075" cy="756" r="0.43" fill="#fff" opacity="0.65"></circle><circle cx="643" cy="244" r="1.45" fill="#fff" opacity="0.94"></circle><circle cx="85" cy="493" r="1.19" fill="#fff" opacity="0.97"></circle><circle cx="1041" cy="158" r="0.73" fill="#fff" opacity="0.87"></circle><circle cx="1181" cy="633" r="0.68" fill="#fff" opacity="0.91"></circle><circle cx="426" cy="611" r="1.46" fill="#fff" opacity="0.79"></circle><circle cx="237" cy="300" r="0.55" fill="#fff" opacity="0.59"></circle><circle cx="772" cy="319" r="1.01" fill="#fff" opacity="0.91"></circle><circle cx="708" cy="247" r="1.39" fill="#fff" opacity="0.99"></circle><circle cx="1329" cy="850" r="0.76" fill="#fff" opacity="0.83"></circle><circle cx="481" cy="967" r="0.72" fill="#fff" opacity="0.77"></circle><circle cx="398" cy="68" r="0.55" fill="#fff" opacity="0.77"></circle><circle cx="584" cy="474" r="0.91" fill="#fff" opacity="0.78"></circle><circle cx="1376" cy="245" r="0.67" fill="#fff" opacity="0.86"></circle><circle cx="561" cy="741" r="1.11" fill="#fff" opacity="0.52"></circle><circle cx="668" cy="838" r="0.59" fill="#fff" opacity="0.84"></circle><circle cx="1322" cy="820" r="0.43" fill="#fff" opacity="0.40"></circle><circle cx="665" cy="933" r="1.33" fill="#fff" opacity="0.66"></circle><circle cx="1049" cy="610" r="0.65" fill="#fff" opacity="0.81"></circle><circle cx="1387" cy="357" r="0.86" fill="#fff" opacity="0.99"></circle><circle cx="177" cy="310" r="0.78" fill="#fff" opacity="0.97"></circle><circle cx="1193" cy="456" r="0.66" fill="#fff" opacity="0.49"></circle><circle cx="1037" cy="524" r="1.53" fill="#fff" opacity="0.62"></circle><circle cx="163" cy="539" r="0.33" fill="#fff" opacity="0.66"></circle><circle cx="566" cy="43" r="1.49" fill="#fff" opacity="0.88"></circle><circle cx="1338" cy="987" r="0.70" fill="#fff" opacity="0.89"></circle><circle cx="89" cy="286" r="0.84" fill="#fff" opacity="0.72"></circle><circle cx="236" cy="37" r="1.41" fill="#fff" opacity="0.59"></circle><circle cx="159" cy="414" r="0.56" fill="#fff" opacity="0.41"></circle><circle cx="1023" cy="218" r="0.58" fill="#fff" opacity="0.97"></circle><circle cx="1269" cy="105" r="1.28" fill="#fff" opacity="0.60"></circle><circle cx="164" cy="470" r="0.65" fill="#fff" opacity="0.78"></circle><circle cx="831" cy="3" r="0.42" fill="#fff" opacity="0.59"></circle><circle cx="1531" cy="914" r="0.66" fill="#fff" opacity="0.73"></circle><circle cx="822" cy="822" r="0.55" fill="#fff" opacity="0.58"></circle><circle cx="580" cy="306" r="1.22" fill="#fff" opacity="0.59"></circle><circle cx="490" cy="131" r="0.43" fill="#fff" opacity="0.77"></circle><circle cx="1598" cy="137" r="1.12" fill="#fff" opacity="0.84"></circle><circle cx="1336" cy="794" r="1.25" fill="#fff" opacity="0.77"></circle><circle cx="811" cy="421" r="1.46" fill="#fff" opacity="0.51"></circle><circle cx="359" cy="82" r="0.64" fill="#fff" opacity="0.73"></circle><circle cx="966" cy="133" r="1.37" fill="#fff" opacity="0.92"></circle><circle cx="362" cy="452" r="0.70" fill="#fff" opacity="0.97"></circle><circle cx="1372" cy="323" r="1.26" fill="#fff" opacity="0.67"></circle><circle cx="537" cy="992" r="1.16" fill="#fff" opacity="0.86"></circle><circle cx="210" cy="891" r="0.33" fill="#fff" opacity="0.74"></circle><circle cx="903" cy="527" r="1.26" fill="#fff" opacity="0.46"></circle><circle cx="1116" cy="35" r="1.48" fill="#fff" opacity="0.97"></circle><circle cx="1420" cy="404" r="1.21" fill="#fff" opacity="0.83"></circle><circle cx="20" cy="361" r="1.49" fill="#fff" opacity="0.49"></circle><circle cx="568" cy="931" r="0.59" fill="#fff" opacity="0.46"></circle><circle cx="260" cy="657" r="0.30" fill="#fff" opacity="0.42"></circle><circle cx="1388" cy="491" r="1.54" fill="#fff" opacity="0.56"></circle><circle cx="1561" cy="345" r="0.67" fill="#fff" opacity="0.93"></circle><circle cx="997" cy="318" r="1.09" fill="#fff" opacity="0.52"></circle><circle cx="1275" cy="584" r="0.96" fill="#fff" opacity="0.48"></circle><circle cx="362" cy="944" r="1.27" fill="#fff" opacity="0.97"></circle><circle cx="1496" cy="53" r="0.52" fill="#fff" opacity="0.94"></circle><circle cx="747" cy="306" r="0.62" fill="#fff" opacity="0.64"></circle><circle cx="1236" cy="395" r="0.67" fill="#fff" opacity="0.99"></circle><circle cx="1225" cy="529" r="0.78" fill="#fff" opacity="0.86"></circle><circle cx="871" cy="325" r="1.38" fill="#fff" opacity="0.85"></circle><circle cx="452" cy="364" r="1.04" fill="#fff" opacity="0.79"></circle><circle cx="1250" cy="412" r="1.41" fill="#fff" opacity="0.70"></circle><circle cx="1114" cy="307" r="1.52" fill="#fff" opacity="0.90"></circle><circle cx="675" cy="519" r="0.64" fill="#fff" opacity="0.77"></circle><circle cx="1039" cy="369" r="0.70" fill="#fff" opacity="0.85"></circle><circle cx="942" cy="918" r="0.61" fill="#fff" opacity="0.60"></circle><circle cx="1371" cy="526" r="0.33" fill="#fff" opacity="0.73"></circle><circle cx="56" cy="67" r="0.81" fill="#fff" opacity="0.51"></circle><circle cx="1421" cy="826" r="0.80" fill="#fff" opacity="0.94"></circle><circle cx="409" cy="51" r="0.98" fill="#fff" opacity="0.46"></circle><circle cx="971" cy="172" r="1.31" fill="#fff" opacity="0.68"></circle><circle cx="419" cy="697" r="0.36" fill="#fff" opacity="0.53"></circle><circle cx="454" cy="761" r="0.87" fill="#fff" opacity="0.97"></circle><circle cx="48" cy="351" r="0.45" fill="#fff" opacity="0.56"></circle><circle cx="603" cy="197" r="1.46" fill="#fff" opacity="0.96"></circle><circle cx="973" cy="323" r="0.85" fill="#fff" opacity="0.86"></circle><circle cx="1554" cy="272" r="0.42" fill="#fff" opacity="0.55"></circle><circle cx="1438" cy="994" r="1.07" fill="#fff" opacity="0.83"></circle><circle cx="1433" cy="403" r="0.49" fill="#fff" opacity="0.53"></circle><circle cx="157" cy="599" r="0.77" fill="#fff" opacity="0.46"></circle><circle cx="791" cy="754" r="1.36" fill="#fff" opacity="0.55"></circle><circle cx="1300" cy="669" r="0.66" fill="#fff" opacity="0.97"></circle><circle cx="123" cy="1" r="1.07" fill="#fff" opacity="0.67"></circle><circle cx="1330" cy="143" r="0.59" fill="#fff" opacity="0.51"></circle><circle cx="42" cy="787" r="0.93" fill="#fff" opacity="0.79"></circle><circle cx="919" cy="143" r="0.89" fill="#fff" opacity="1.00"></circle><circle cx="921" cy="828" r="0.92" fill="#fff" opacity="0.52"></circle><circle cx="324" cy="423" r="0.86" fill="#fff" opacity="0.99"></circle><circle cx="411" cy="693" r="1.09" fill="#fff" opacity="0.64"></circle><circle cx="630" cy="477" r="0.63" fill="#fff" opacity="0.97"></circle><circle cx="13" cy="244" r="1.33" fill="#fff" opacity="0.77"></circle><circle cx="1266" cy="317" r="1.25" fill="#fff" opacity="0.58"></circle><circle cx="1525" cy="755" r="0.57" fill="#fff" opacity="0.47"></circle><circle cx="177" cy="918" r="0.58" fill="#fff" opacity="0.53"></circle><circle cx="1350" cy="681" r="0.93" fill="#fff" opacity="0.64"></circle><circle cx="1471" cy="329" r="0.33" fill="#fff" opacity="0.61"></circle><circle cx="281" cy="109" r="0.81" fill="#fff" opacity="0.66"></circle>
</svg>