<svg xmlns="http://www.w3.org/2000/svg" viewBox="0 0 1600 1000" width="1600" height="1000">
  <defs>
    <radialGradient id="bg" cx="50%" cy="50%" r="75%">
      <stop offset="0%" stop-color="#0c0e2e"></stop>
      <stop offset="60%" stop-color="#05071a"></stop>
      <stop offset="100%" stop-color="#02030d"></stop>
    </radialGradient>
    <radialGradient id="g0" cx="50%" cy="50%" r="50%">
      <stop offset="0%" stop-color="#2b8fa6" stop-opacity="0.71"></stop>
      <stop offset="100%" stop-color="#2b8fa6" stop-opacity="0"></stop>
    </radialGradient><radialGradient id="g1" cx="50%" cy="50%" r="50%">
      <stop offset="0%" stop-color="#ea9a78" stop-opacity="0.44"></stop>
      <stop offset="100%" stop-color="#ea9a78" stop-opacity="0"></stop>
    </radialGradient><radialGradient id="g2" cx="50%" cy="50%" r="50%">
      <stop offset="0%" stop-color="#a55ec7" stop-opacity="0.63"></stop>
      <stop offset="100%" stop-color="#a55ec7" stop-opacity="0"></stop>
    </radialGradient><radialGradient id="g3" cx="50%" cy="50%" r="50%">
      <stop offset="0%" stop-color="#4f7cd1" stop-opacity="0.69"></stop>
      <stop offset="100%" stop-color="#4f7cd1" stop-opacity="0"></stop>
    </radialGradient><radialGradient id="g4" cx="50%" cy="50%" r="50%">
      <stop offset="0%" stop-color="#ea9a78" stop-opacity="0.71"></stop>
      <stop offset="100%" stop-color="#ea9a78" stop-opacity="0"></stop>
    </radialGradient><radialGradient id="g5" cx="50%" cy="50%" r="50%">
      <stop offset="0%" stop-color="#4f7cd1" stop-opacity="0.39"></stop>
      <stop offset="100%" stop-color="#4f7cd1" stop-opacity="0"></stop>
    </radialGradient><radialGradient id="g6" cx="50%" cy="50%" r="50%">
      <stop offset="0%" stop-color="#e6c984" stop-opacity="0.71"></stop>
      <stop offset="100%" stop-color="#e6c984" stop-opacity="0"></stop>
    </radialGradient>
  </defs>
  <rect width="100%" height="100%" fill="url(#bg)"></rect>
  <ellipse cx="195" cy="731" rx="606" ry="424" fill="url(#g0)"></ellipse><ellipse cx="1092" cy="997" rx="688" ry="481" fill="url(#g1)"></ellipse><ellipse cx="1283" cy="800" rx="559" ry="391" fill="url(#g2)"></ellipse><ellipse cx="535" cy="921" rx="639" ry="447" fill="url(#g3)"></ellipse><ellipse cx="334" cy="103" rx="588" ry="412" fill="url(#g4)"></ellipse><ellipse cx="864" cy="498" rx="729" ry="511" fill="url(#g5)"></ellipse><ellipse cx="648" cy="775" rx="743" ry="520" fill="url(#g6)"></ellipse>
  <circle cx="461" cy="901" r="1.46" fill="#fff" opacity="0.83"></circle><circle cx="1099" cy="193" r="1.06" fill="#fff" opacity="0.83"></circle><circle cx="347" cy="308" r="0.84" fill="#fff" opacity="0.63"></circle><circle cx="497" cy="197" r="0.42" fill="#fff" opacity="0.40"></circle><circle cx="759" cy="774" r="1.35" fill="#fff" opacity="0.80"></circle><circle cx="1350" cy="136" r="0.54" fill="#fff" opacity="0.83"></circle><circle cx="650" cy="457" r="1.35" fill="#fff" opacity="0.42"></circle><circle cx="1426" cy="539" r="0.87" fill="#fff" opacity="0.94"></circle><circle cx="516" cy="37" r="1.49" fill="#fff" opacity="0.75"></circle><circle cx="389" cy="346" r="1.23" fill="#fff" opacity="0.68"></circle><circle cx="967" cy="157" r="0.49" fill="#fff" opacity="0.47"></circle><circle cx="511" cy="680" r="0.66" fill="#fff" opacity="0.77"></circle><circle cx="780" cy="532" r="0.91" fill="#fff" opacity="0.99"></circle><circle cx="449" cy="293" r="1.07" fill="#fff" opacity="0.97"></circle><circle cx="803" cy="730" r="1.52" fill="#fff" opacity="0.71"></circle><circle cx="1289" cy="680" r="1.27" fill="#fff" opacity="0.54"></circle><circle cx="939" cy="615" r="0.89" fill="#fff" opacity="0.44"></circle><circle cx="858" cy="853" r="1.03" fill="#fff" opacity="0.96"></circle><circle cx="1383" cy="458" r="0.57" fill="#fff" opacity="0.94"></circle><circle cx="302" cy="788" r="0.79" fill="#fff" opacity="0.50"></circle><circle cx="143" cy="718" r="1.35" fill="#fff" opacity="0.72"></circle><circle cx="530" cy="533" r="0.97" fill="#fff" opacity="0.78"></circle><circle cx="1206" cy="480" r="0.37" fill="#fff" opacity="0.93"></circle><circle cx="1324" cy="990" r="0.76" fill="#fff" opacity="0.99"></circle><circle cx="1394" cy="570" r="0.75" fill="#fff" opacity="0.47"></circle><circle cx="1518" cy="356" r="0.47" fill="#fff" opacity="0.95"></circle><circle cx="667" cy="336" r="1.43" fill="#fff" opacity="0.97"></circle><circle cx="244" cy="237" r="0.77" fill="#fff" opacity="1.00"></circle><circle cx="704" cy="85" r="0.66" fill="#fff" opacity="0.93"></circle><circle cx="841" cy="423" r="0.31" fill="#fff" opacity="0.46"></circle><circle cx="1346" cy="201" r="0.60" fill="#fff" opacity="0.97"></circle><circle cx="1430" cy="332" r="0.52" fill="#fff" opacity="0.70"></circle><circle cx="1310" cy="917" r="0.87" fill="#fff" opacity="0.47"></circle><circle cx="967" cy="127" r="1.10" fill="#fff" opacity="0.79"></circle><circle cx="1564" cy="765" r="0.91" fill="#fff" opacity="0.65"></circle><circle cx="1543" cy="485" r="1.39" fill="#fff" opacity="0.78"></circle><circle cx="172" cy="683" r="0.55" fill="#fff" opacity="0.85"></circle><circle cx="572" cy="49" r="1.40" fill="#fff" opacity="0.57"></circle><circle cx="1005" cy="794" r="1.43" fill="#fff" opacity="0.61"></circle><circle cx="29" cy="535" r="1.10" fill="#fff" opacity="0.96"></circle><circle cx="1121" cy="852" r="1.55" fill="#fff" opacity="0.87"></circle><circle cx="764" cy="511" r="0.55" fill="#fff" opacity="0.94"></circle><circle cx="5" cy="350" r="1.02" fill="#fff" opacity="0.91"></circle><circle cx="1077" cy="840" r="0.93" fill="#fff" opacity="0.75"></circle><circle cx="286" cy="301" r="0.92" fill="#fff" opacity="0.99"></circle><circle cx="1166" cy="795" r="1.19" fill="#fff" opacity="0.51"></circle><circle cx="1507" cy="680" r="0.40" fill="#fff" opacity="0.60"></circle><circle cx="637" cy="832" r="0.81" fill="#fff" opacity="0.55"></circle><circle cx="1379" cy="536" r="1.16" fill="#fff" opacity="0.75"></circle><circle cx="278" cy="38" r="0.84" fill="#fff" opacity="0.84"></circle><circle cx="1284" cy="771" r="1.09" fill="#fff" opacity="0.62"></circle><circle cx="111" cy="240" r="0.51" fill="#fff" opacity="0.84"></circle><circle cx="57" cy="582" r="0.51" fill="#fff" opacity="0.65"></circle><circle cx="95" cy="784" r="1.32" fill="#fff" opacity="0.40"></circle><circle cx="27" cy="574" r="1.39" fill="#fff" opacity="0.57"></circle><circle cx="309" cy="977" r="1.57" fill="#fff" opacity="0.44"></circle><circle cx="1335" cy="537" r="1.07" fill="#fff" opacity="0.90"></circle><circle cx="596" cy="204" r="0.79" fill="#fff" opacity="0.94"></circle><circle cx="502" cy="891" r="1.00" fill="#fff" opacity="0.60"></circle><circle cx="1271" cy="698" r="1.20" fill="#fff" opacity="0.70"></circle><circle cx="1283" cy="797" r="0.86" fill="#fff" opacity="0.56"></circle><circle cx="103" cy="990" r="0.95" fill="#fff" opacity="0.95"></circle><circle cx="971" cy="933" r="1.29" fill="#fff" opacity="0.82"></circle><circle cx="1555" cy="19" r="1.17" fill="#fff" opacity="0.42"></circle><circle cx="177" cy="941" r="1.01" fill="#fff" opacity="0.67"></circle><circle cx="1499" cy="909" r="0.89" fill="#fff" opacity="0.44"></circle><circle cx="879" cy="538" r="1.28" fill="#fff" opacity="0.93"></circle><circle cx="193" cy="411" r="0.72" fill="#fff" opacity="0.77"></circle><circle cx="725" cy="292" r="0.88" fill="#fff" opacity="0.58"></circle><circle cx="322" cy="20" r="0.77" fill="#fff" opacity="0.68"></circle><circle cx="1216" cy="66" r="0.97" fill="#fff" opacity="0.45"></circle><circle cx="1313" cy="749" r="0.82" fill="#fff" opacity="0.43"></circle><circle cx="949" cy="132" r="0.50" fill="#fff" opacity="0.68"></circle><circle cx="1113" cy="572" r="1.31" fill="#fff" opacity="0.70"></circle><circle cx="1131" cy="947" r="1.58" fill="#fff" opacity="0.99"></circle><circle cx="629" cy="539" r="1.34" fill="#fff" opacity="0.72"></circle><circle cx="950" cy="597" r="1.31" fill="#fff" opacity="0.74"></circle><circle cx="1245" cy="552" r="1.42" fill="#fff" opacity="0.86"></circle><circle cx="427" cy="910" r="1.56" fill="#fff" opacity="0.60"></circle><circle cx="195" cy="807" r="0.55" fill="#fff" opacity="0.95"></circle><circle cx="1122" cy="231" r="1.22" fill="#fff" opacity="0.44"></circle><circle cx="1410" cy="910" r="0.71" fill="#fff" opacity="0.73"></circle><circle cx="1514" cy="869" r="1.18" fill="#fff" opacity="0.54"></circle><circle cx="229" cy="651" r="0.53" fill="#fff" opacity="0.73"></circle><circle cx="1446" cy="207" r="0.97" fill="#fff" opacity="0.91"></circle><circle cx="1174" cy="450" r="1.47" fill="#fff" opacity="0.50"></circle><circle cx="1232" cy="479" r="1.53" fill="#fff" opacity="0.94"></circle><circle cx="1599" cy="467" r="0.61" fill="#fff" opacity="0.93"></circle><circle cx="241" cy="216" r="0.99" fill="#fff" opacity="0.65"></circle><circle cx="398" cy="381" r="1.18" fill="#fff" opacity="0.85"></circle><circle cx="1338" cy="356" r="0.48" fill="#fff" opacity="0.59"></circle><circle cx="1383" cy="833" r="0.61" fill="#fff" opacity="0.77"></circle><circle cx="394" cy="23" r="0.35" fill="#fff" opacity="0.88"></circle><circle cx="129" cy="542" r="1.47" fill="#fff" opacity="0.90"></circle><circle cx="865" cy="970" r="1.20" fill="#fff" opacity="0.67"></circle><circle cx="685" cy="73" r="1.21" fill="#fff" opacity="0.81"></circle><circle cx="638" cy="690" r="0.52" fill="#fff" opacity="0.45"></circle><circle cx="1354" cy="291" r="1.01" fill="#fff" opacity="0.75"></circle><circle cx="740" cy="196" r="0.71" fill="#fff" opacity="0.46"></circle><circle cx="732" cy="468" r="1.12" fill="#fff" opacity="0.85"></circle><circle cx="718" cy="464" r="0.92" fill="#fff" opacity="0.81"></circle><circle cx="25" cy="61" r="1.04" fill="#fff" opacity="0.82"></circle><circle cx="1479" cy="543" r="1.53" fill="#fff" opacity="0.69"></circle><circle cx="22" cy="156" r="0.49" fill="#fff" opacity="0.64"></circle><circle cx="1206" cy="333" r="0.45" fill="#fff" opacity="0.49"></circle><circle cx="743" cy="580" r="1.31" fill="#fff" opacity="0.97"></circle><circle cx="334" cy="33" r="0.59" fill="#fff" opacity="0.65"></circle><circle cx="550" cy="679" r="1.11" fill="#fff" opacity="0.47"></circle><circle cx="1193" cy="247" r="1.33" fill="#fff" opacity="0.90"></circle><circle cx="1119" cy="762" r="0.78" fill="#fff" opacity="0.64"></circle><circle cx="723" cy="766" r="1.29" fill="#fff" opacity="0.57"></circle><circle cx="695" cy="210" r="1.16" fill="#fff" opacity="0.88"></circle><circle cx="246" cy="9" r="0.64" fill="#fff" opacity="0.41"></circle><circle cx="1193" cy="260" r="0.56" fill="#fff" opacity="0.57"></circle><circle cx="315" cy="137" r="0.36" fill="#fff" opacity="0.70"></circle><circle cx="380" cy="441" r="1.03" fill="#fff" opacity="0.95"></circle><circle cx="1425" cy="828" r="1.08" fill="#fff" opacity="0.89"></circle><circle cx="1121" cy="693" r="1.10" fill="#fff" opacity="0.76"></circle><circle cx="988" cy="726" r="1.52" fill="#fff" opacity="0.87"></circle><circle cx="888" cy="137" r="1.11" fill="#fff" opacity="0.71"></circle><circle cx="978" cy="545" r="0.35" fill="#fff" opacity="0.87"></circle><circle cx="1537" cy="528" r="0.37" fill="#fff" opacity="0.57"></circle><circle cx="646" cy="854" r="1.54" fill="#fff" opacity="0.45"></circle><circle cx="954" cy="360" r="1.58" fill="#fff" opacity="0.82"></circle><circle cx="1493" cy="516" r="1.05" fill="#fff" opacity="0.45"></circle><circle cx="168" cy="644" r="0.61" fill="#fff" opacity="0.50"></circle><circle cx="515" cy="805" r="0.44" fill="#fff" opacity="0.42"></circle><circle cx="323" cy="356" r="0.52" fill="#fff" opacity="0.91"></circle><circle cx="519" cy="175" r="0.50" fill="#fff" opacity="0.66"></circle><circle cx="728" cy="546" r="0.41" fill="#fff" opacity="0.66"></circle><circle cx="694" cy="715" r="0.96" fill="#fff" opacity="0.54"></circle><circle cx="1166" cy="114" r="0.78" fill="#fff" opacity="0.73"></circle><circle cx="1060" cy="250" r="1.06" fill="#fff" opacity="0.74"></circle><circle cx="472" cy="258" r="0.63" fill="#fff" opacity="0.95"></circle><circle cx="1577" cy="127" r="1.01" fill="#fff" opacity="0.51"></circle><circle cx="976" cy="584" r="0.65" fill="#fff" opacity="0.47"></circle><circle cx="725" cy="654" r="0.39" fill="#fff" opacity="0.74"></circle><circle cx="1217" cy="880" r="0.76" fill="#fff" opacity="0.40"></circle><circle cx="1545" cy="214" r="1.34" fill="#fff" opacity="0.85"></circle><circle cx="918" cy="568" r="1.12" fill="#fff" opacity="0.91"></circle><circle cx="1153" cy="41" r="0.89" fill="#fff" opacity="0.81"></circle><circle cx="632" cy="807" r="1.41" fill="#fff" opacity="0.46"></circle><circle cx="518" cy="667" r="1.07" fill="#fff" opacity="0.65"></circle><circle cx="853" cy="276" r="0.97" fill="#fff" opacity="0.92"></circle><circle cx="904" cy="29" r="0.42" fill="#fff" opacity="0.93"></circle><circle cx="593" cy="618" r="1.13" fill="#fff" opacity="0.98"></circle><circle cx="1382" cy="252" r="0.58" fill="#fff" opacity="0.55"></circle><circle cx="228" cy="548" r="0.54" fill="#fff" opacity="0.84"></circle><circle cx="608" cy="87" r="0.84" fill="#fff" opacity="0.48"></circle><circle cx="607" cy="635" r="0.57" fill="#fff" opacity="0.68"></circle><circle cx="1271" cy="30" r="1.33" fill="#fff" opacity="0.59"></circle><circle cx="31" cy="742" r="1.09" fill="#fff" opacity="0.75"></circle><circle cx="1195" cy="92" r="0.51" fill="#fff" opacity="0.53"></circle><circle cx="298" cy="141" r="1.06" fill="#fff" opacity="0.58"></circle><circle cx="1528" cy="248" r="1.43" fill="#fff" opacity="0.41"></circle><circle cx="1013" cy="290" r="1.26" fill="#fff" opacity="0.49"></circle><circle cx="1578" cy="549" r="0.60" fill="#fff" opacity="0.62"></circle><circle cx="1366" cy="273" r="1.43" fill="#fff" opacity="0.44"></circle><circle cx="1127" cy="895" r="1.11" fill="#fff" opacity="0.96"></circle><circle cx="1376" cy="920" r="0.81" fill="#fff" opacity="0.51"></circle><circle cx="611" cy="484" r="0.67" fill="#fff" opacity="0.65"></circle><circle cx="1004" cy="574" r="0.90" fill="#fff" opacity="0.54"></circle><circle cx="759" cy="920" r="1.26" fill="#fff" opacity="0.64"></circle><circle cx="330" cy="546" r="1.30" fill="#fff" opacity="0.84"></circle><circle cx="111" cy="994" r="1.52" fill="#fff" opacity="0.84"></circle><circle cx="794" cy="217" r="1.53" fill="#fff" opacity="0.81"></circle><circle cx="1590" cy="126" r="1.59" fill="#fff" opacity="0.81"></circle><circle cx="1114" cy="822" r="1.22" fill="#fff" opacity="0.44"></circle><circle cx="948" cy="476" r="1.16" fill="#fff" opacity="0.83"></circle><circle cx="657" cy="892" r="1.11" fill="#fff" opacity="0.96"></circle><circle cx="280" cy="724" r="0.87" fill="#fff" opacity="0.96"></circle><circle cx="687" cy="366" r="1.04" fill="#fff" opacity="0.50"></circle><circle cx="198" cy="510" r="0.73" fill="#fff" opacity="0.48"></circle><circle cx="276" cy="366" r="1.34" fill="#fff" opacity="0.98"></circle><circle cx="1078" cy="551" r="0.72" fill="#fff" opacity="0.80"></circle><circle cx="1280" cy="646" r="1.32" fill="#fff" opacity="0.98"></circle><circle cx="568" cy="416" r="0.90" fill="#fff" opacity="0.92"></circle><circle cx="1587" cy="700" r="1.08" fill="#fff" opacity="0.96"></circle><circle cx="170" cy="967" r="1.13" fill="#fff" opacity="0.46"></circle><circle cx="623" cy="539" r="0.40" fill="#fff" opacity="0.57"></circle><circle cx="81" cy="478" r="0.38" fill="#fff" opacity="0.75"></circle><circle cx="1133" cy="141" r="1.04" fill="#fff" opacity="0.51"></circle><circle cx="1507" cy="404" r="0.73" fill="#fff" opacity="0.93"></circle><circle cx="827" cy="552" r="0.78" fill="#fff" opacity="0.59"></circle><circle cx="438" cy="832" r="0.61" fill="#fff" opacity="0.95"></circle><circle cx="1088" cy="676" r="1.44" fill="#fff" opacity="0.60"></circle><circle cx="92" cy="590" r="0.56" fill="#fff" opacity="0.88"></circle><circle cx="749" cy="709" r="0.71" fill="#fff" opacity="0.96"></circle><circle cx="432" cy="22" r="0.80" fill="#fff" opacity="0.58"></circle><circle cx="542" cy="257" r="0.58" fill="#fff" opacity="0.81"></circle><circle cx="1535" cy="438" r="0.91" fill="#fff" opacity="0.95"></circle><circle cx="605" cy="109" r="0.98" fill="#fff" opacity="0.67"></circle><circle cx="44" cy="220" r="0.41" fill="#fff" opacity="0.78"></circle><circle cx="662" cy="685" r="0.77" fill="#fff" opacity="0.71"></circle><circle cx="1075" cy="603" r="1.55" fill="#fff" opacity="0.68"></circle><circle cx="1264" cy="146" r="0.91" fill="#fff" opacity="0.60"></circle><circle cx="795" cy="118" r="1.16" fill="#fff" opacity="0.66"></circle><circle cx="1308" cy="171" r="0.77" fill="#fff" opacity="0.99"></circle><circle cx="470" cy="702" r="0.36" fill="#fff" opacity="0.66"></circle><circle cx="1403" cy="402" r="0.34" fill="#fff" opacity="0.58"></circle><circle cx="770" cy="480" r="0.80" fill="#fff" opacity="0.82"></circle><circle cx="327" cy="554" r="0.91" fill="#fff" opacity="0.77"></circle><circle cx="352" cy="205" r="0.49" fill="#fff" opacity="0.88"></circle><circle cx="528" cy="197" r="1.22" fill="#fff" opacity="0.56"></circle><circle cx="303" cy="370" r="0.83" fill="#fff" opacity="0.72"></circle><circle cx="308" cy="193" r="1.17" fill="#fff" opacity="0.76"></circle><circle cx="50" cy="987" r="1.60" fill="#fff" opacity="0.60"></circle><circle cx="1464" cy="814" r="0.99" fill="#fff" opacity="0.92"></circle><circle cx="738" cy="33" r="0.64" fill="#fff" opacity="0.61"></circle><circle cx="401" cy="518" r="1.49" fill="#fff" opacity="0.76"></circle><circle cx="77" cy="556" r="0.97" fill="#fff" opacity="0.56"></circle><circle cx="1109" cy="391" r="1.08" fill="#fff" opacity="0.85"></circle><circle cx="1049" cy="457" r="0.47" fill="#fff" opacity="0.83"></circle><circle cx="409" cy="260" r="0.31" fill="#fff" opacity="0.65"></circle><circle cx="888" cy="935" r="0.75" fill="#fff" opacity="0.66"></circle><circle cx="1459" cy="470" r="0.70" fill="#fff" opacity="0.62"></circle><circle cx="325" cy="593" r="1.20" fill="#fff" opacity="0.98"></circle><circle cx="1140" cy="330" r="0.51" fill="#fff" opacity="0.45"></circle><circle cx="1099" cy="223" r="0.44" fill="#fff" opacity="0.51"></circle><circle cx="894" cy="223" r="0.60" fill="#fff" opacity="0.75"></circle>
</svg>